<svg xmlns="http://www.w3.org/2000/svg" version="1.0" width="600.000000pt" height="600.000000pt" viewBox="0 0 600.000000 600.000000" preserveAspectRatio="xMidYMid meet">

<g transform="translate(0.000000,600.000000) scale(0.100000,-0.100000)" fill="#9098a1" stroke="none">
<path d="M2770 4989 c-214 -24 -445 -92 -645 -189 -620 -300 -1042 -902 -1116 -1589 -14 -137 -7 -407 15 -536 70 -408 251 -766 540 -1064 157 -161 309 -276 498 -375 499 -264 1076 -305 1615 -115 395 140 762 430 996 790 327 501 413 1160 224 1716 -104 304 -245 537 -462 762 -323 334 -733 540 -1189 596 -128 16 -353 18 -476 4z m130 -1852 l0 -704 -347 -244 c-190 -134 -352 -248 -360 -252 -11 -7 -13 111 -13 690 l0 699 113 79 c61 44 182 129 267 190 l155 110 -460 5 -460 5 -3 49 c-2 27 -1 55 2 62 4 11 104 13 556 14 l550 0 0 -703z m1278 697 c20 -6 22 -13 22 -65 l0 -59 -462 -2 -461 -3 192 -135 c106 -74 228 -161 272 -192 l79 -58 0 -696 c0 -392 -4 -694 -9 -692 -5 2 -169 116 -364 253 l-356 250 -1 703 0 702 533 0 c292 0 542 -3 555 -6z" fill="#9098a1"/>
</g>
</svg>